<svg width="182" height="48" viewBox="0 0 182 48" fill="none" xmlns="http://www.w3.org/2000/svg">
<path d="M40.2913 15.1843H50.0613C52.434 15.1843 54.3299 15.7658 55.7488 16.9289C57.1911 18.0688 57.9122 19.6389 57.9122 21.6395C57.9122 23.1515 57.5167 24.3727 56.7258 25.3032C55.9582 26.2104 54.83 26.792 53.3412 27.0479C53.1551 27.0944 53.0272 27.1409 52.9574 27.1874C52.8876 27.2339 52.8527 27.3037 52.8527 27.3968C52.8527 27.4898 52.8876 27.5596 52.9574 27.6061C53.0272 27.6527 53.1551 27.6992 53.3412 27.7457C56.5048 28.3505 58.0867 30.2696 58.0867 33.503C58.0867 35.6664 57.3655 37.3412 55.9233 38.5276C54.4811 39.714 52.5271 40.3071 50.0613 40.3071H40.2913V15.1843ZM49.7124 26.0011C51.2477 26.0011 52.4107 25.6987 53.2017 25.0939C54.0158 24.489 54.4229 23.512 54.4229 22.1629C54.4229 20.8137 54.0158 19.8367 53.2017 19.2319C52.4107 18.627 51.2477 18.3246 49.7124 18.3246H43.7806V26.0011H49.7124ZM49.7124 37.1668C51.3407 37.1668 52.562 36.8644 53.3761 36.2596C54.1903 35.6315 54.5974 34.5963 54.5974 33.1541C54.5974 31.7119 54.1903 30.6883 53.3761 30.0835C52.562 29.4555 51.3407 29.1414 49.7124 29.1414H43.7806V37.1668H49.7124ZM60.172 27.7457C60.172 25.1404 60.6954 22.8491 61.7422 20.8718C62.8123 18.8946 64.3243 17.3709 66.2783 16.3009C68.2323 15.2075 70.5003 14.6609 73.0824 14.6609C75.4551 14.6609 77.4673 15.1378 79.1189 16.0915C80.7937 17.022 82.0498 18.2432 82.8873 19.7552C83.7247 21.2673 84.1783 22.884 84.2481 24.6054H80.7588C80.5727 22.535 79.84 20.8835 78.5606 19.6506C77.2812 18.4177 75.3969 17.8012 72.9079 17.8012C71.0702 17.8012 69.4535 18.22 68.0578 19.0574C66.6621 19.8716 65.5804 21.0347 64.8128 22.5467C64.0451 24.0587 63.6613 25.7917 63.6613 27.7457C63.6613 29.723 64.0335 31.4676 64.7779 32.9796C65.5455 34.4684 66.6505 35.6315 68.0927 36.4689C69.535 37.2831 71.2563 37.6902 73.2569 37.6902C75.6063 37.6902 77.3509 37.1668 78.4908 36.12C79.6306 35.0732 80.2005 33.6775 80.2005 31.9328H70.9888V28.7925H83.6898V31.2699C83.6898 34.2474 82.7477 36.5852 80.8635 38.2833C79.0025 39.9815 76.4088 40.8305 73.0824 40.8305C70.4538 40.8305 68.1625 40.2955 66.2085 39.2255C64.2545 38.1321 62.7541 36.5969 61.7073 34.6196C60.6838 32.6423 60.172 30.351 60.172 27.7457ZM106.956 22.6693C107.802 22.6693 108.225 22.9296 108.225 23.4177C108.225 23.8408 107.899 24.4265 107.118 24.4265C106.435 24.4265 105.914 24.0035 105.068 24.0035C104.775 24.0035 104.515 24.036 104.222 24.1987C104.743 24.9798 105.003 26.0211 105.003 27.1926C105.003 31.1628 102.107 35.0678 98.8202 35.4583C96.2494 35.8163 94.5247 36.3695 94.5247 37.3458C94.5247 38.0943 95.3057 38.6475 97.4209 39.4285L100.643 40.6651C103.018 41.5763 103.929 42.3247 103.929 43.7241C103.929 46.2623 100.708 47.8569 96.3796 47.8569C91.6609 47.8569 88.4393 46.0996 88.4393 43.9193C88.4393 41.6739 91.2379 40.7302 95.0453 40.3071C93.7111 39.6888 92.6047 38.9729 92.6047 37.9641C92.6047 36.3044 95.0128 35.5885 97.0304 35.2956C95.4358 34.7099 94.4921 33.0502 94.4921 30.9675C94.4921 26.8021 97.8114 22.7018 101.359 22.7018C102.4 22.7018 103.213 23.0598 103.832 23.7106C104.841 23.0272 106.077 22.6693 106.956 22.6693ZM98.2996 34.6448C101.066 34.6448 103.246 30.2516 103.246 26.672C103.246 24.7845 102.628 23.5479 101.163 23.5479C98.3972 23.5479 96.2168 27.9736 96.2168 31.5207C96.2168 33.3756 96.8352 34.6448 98.2996 34.6448ZM99.9592 42.162L96.2819 40.7953L96.0541 40.6976C92.3769 41.1858 90.1315 42.0969 90.1315 43.7566C90.1315 45.7742 93.4182 46.783 96.8026 46.783C100.48 46.783 102.14 45.644 102.14 44.2122C102.14 43.2685 101.228 42.6176 99.9592 42.162ZM108.631 40.3071H106.743L111.137 26.9648C111.397 26.1187 111.722 25.0448 111.722 24.6543C111.722 24.1662 111.527 24.036 111.234 24.036C110.128 24.036 108.468 26.1513 107.362 28.1038H106.678C108.013 25.533 110.225 22.832 112.276 22.832C113.122 22.832 113.545 23.5154 113.545 24.2964C113.545 24.9798 113.219 25.8584 112.829 26.9648L110.681 32.8875H110.909C113.675 25.0448 116.669 22.7669 119.012 22.7669C119.695 22.7669 120.053 23.0598 120.053 23.5804C120.053 24.2964 119.5 25.0123 118.817 25.0123C118.263 25.0123 117.971 24.6869 117.32 24.6869C115.562 24.6869 112.634 28.2665 108.631 40.3071ZM127.07 39.2658C128.404 39.2658 129.868 37.0204 131.007 34.5472H131.691C130.552 37.3458 128.469 40.5024 126.256 40.5024C124.987 40.5024 124.531 39.7865 124.531 38.8102C124.531 38.2244 124.857 37.5085 125.117 36.7926L126.972 31.6834H126.679C125.085 35.1329 121.765 40.6 119.129 40.6C117.274 40.6 116.624 39.038 116.624 36.8251C116.624 31.2604 121.798 22.7669 126.126 22.7669C128.046 22.7669 128.957 24.1662 128.794 26.314H128.892L129.868 23.613C130.584 23.613 131.268 23.1899 131.626 22.6367L131.984 22.7994L126.874 36.8251C126.712 37.3132 126.419 38.0292 126.419 38.4522C126.419 38.9404 126.549 39.2658 127.07 39.2658ZM119.683 39.038C121.83 39.038 125.703 33.3106 127.005 29.6984C127.363 28.7221 127.753 27.5506 127.753 26.2489C127.753 24.8821 127.33 23.971 126.158 23.971C122.807 23.971 118.544 31.5533 118.544 36.5973C118.544 38.1593 118.836 39.038 119.683 39.038ZM134.43 40.3071H132.575L137.164 26.9648C137.457 26.1187 137.815 25.0448 137.815 24.6543C137.815 24.1662 137.619 24.036 137.327 24.036C136.22 24.036 134.56 26.1513 133.454 28.1038H132.771C134.105 25.533 136.318 22.832 138.368 22.832C139.214 22.832 139.637 23.5154 139.637 24.2964C139.637 24.9798 139.312 25.8584 138.921 26.9648L136.773 32.8875H137.034C140.613 25.3377 143.152 22.7669 145.299 22.7669C146.503 22.7669 147.154 23.5479 147.154 24.7845C147.154 27.453 144.421 32.6272 142.696 36.8251C142.533 37.3132 142.24 38.0292 142.24 38.4522C142.24 38.9404 142.371 39.2658 142.891 39.2658C144.225 39.2658 145.722 37.0204 146.829 34.5472H147.512C146.373 37.3458 144.323 40.5024 142.11 40.5024C140.841 40.5024 140.385 39.7865 140.385 38.8102C140.385 38.2244 140.678 37.5085 140.971 36.7926C142.794 32.1065 145.137 27.2252 145.137 25.4679C145.137 24.6543 144.909 24.2638 144.356 24.2638C142.826 24.2638 139.214 28.1689 134.43 40.3071ZM154.837 24.036L150.508 36.5973C150.346 37.1505 150.118 37.8665 150.118 38.3546C150.118 38.8753 150.248 39.2007 150.801 39.2007C152.331 39.2007 154.283 36.76 155.585 33.9939H156.301C154.967 37.2156 152.461 40.5024 149.923 40.5024C148.686 40.5024 148.23 39.819 148.23 38.7776C148.23 38.1593 148.458 37.3458 148.686 36.6624L153.014 24.036H150.443L150.704 23.4177C153.502 23.3526 154.511 22.0184 155.813 19.2198H156.561L155.097 23.1899H158.351L158.091 24.036H154.837ZM160.458 40.7302C157.887 40.7302 156.162 39.0054 156.162 37.4109C156.162 36.6949 156.585 36.3044 157.138 36.3044C157.659 36.3044 157.789 36.6949 158.05 37.5085C158.505 38.9078 159.286 39.7865 160.881 39.7865C162.638 39.7865 163.517 38.4522 163.517 36.6949C163.517 35.556 163.094 34.6448 162.41 33.5384L161.434 31.8462C160.23 29.8611 159.644 28.7547 159.644 27.3228C159.644 24.6218 161.824 22.7018 164.493 22.7018C166.706 22.7018 167.975 24.2313 167.975 25.2726C167.975 25.956 167.487 26.3465 166.999 26.3465C166.478 26.3465 166.283 25.8909 166.087 25.3052C165.73 24.3615 165.241 23.613 163.875 23.613C162.345 23.613 161.304 24.6218 161.304 26.4116C161.304 27.4855 161.759 28.657 162.508 29.8936L163.452 31.5533C164.688 33.7011 165.176 34.5146 165.176 35.8814C165.176 38.7451 163.159 40.7302 160.458 40.7302Z" fill="#231E2B"/>
<path d="M10.9827 40.0533H0.800415L0.800492 15.0022H6.94332V18.4881C6.94332 20.0372 8.19912 21.293 9.74823 21.293C11.2973 21.293 12.5531 20.0372 12.5531 18.4881V15.0022H21.3161V18.2523C21.3161 19.9316 22.6774 21.293 24.3568 21.293C26.0361 21.293 27.3975 19.9316 27.3975 18.2523V15.0022H33.3763L33.3762 40.0533H22.7113L22.7113 32.5381C22.7113 29.2993 20.0858 26.6738 16.847 26.6738C13.6083 26.6738 10.9828 29.2993 10.9828 32.538L10.9827 40.0533Z" fill="#231E2B"/>
<path fill-rule="evenodd" clip-rule="evenodd" d="M15.6089 17.1483L15.6089 0.0711723C19.1306 -0.300725 21.1257 1.21256 23.0854 2.69912C25.4402 4.48524 27.744 6.23278 32.5841 4.62537C29.6364 10.9723 22.1217 10.1517 19.3703 9.61015C19.3698 9.61083 19.3694 9.61151 19.369 9.6122C18.4849 9.51019 18.3206 10.3347 18.349 10.7598L18.3408 10.7629V17.1483H15.6089Z" fill="#231E2B"/>
<path d="M172.8 8.58118C172.8 8.58118 173.297 13.2181 175.232 15.1531C177.167 17.0882 181.804 17.585 181.804 17.585C181.804 17.585 177.167 18.0818 175.232 20.0168C173.297 21.9519 172.8 26.5888 172.8 26.5888C172.8 26.5888 172.303 21.9519 170.368 20.0168C168.433 18.0818 163.796 17.585 163.796 17.585C163.796 17.585 168.433 17.0882 170.368 15.1531C172.303 13.2181 172.8 8.58118 172.8 8.58118Z" fill="#9FA9FF"/>
</svg>
